<svg width="70" height="42" viewBox="0 0 70 42" fill="none" xmlns="http://www.w3.org/2000/svg">
<g id="Vector">
<path d="M22.7659 0.00745729C19.2029 0.159606 16.1097 1.06806 13.6931 2.67375C12.7684 3.28677 11.919 4.04308 11.3193 4.7861C10.7417 5.50105 10.3665 6.22043 10.2291 6.87777C10.1523 7.24411 10.1641 7.73748 10.2587 8.12893C10.4596 8.95614 11.0431 9.65041 11.8998 10.0788C12.1967 10.2265 12.5365 10.3491 12.8142 10.4082C12.9516 10.4377 13.2071 10.4304 13.343 10.3934C13.5616 10.3358 13.7788 10.197 13.9235 10.0227C14.0107 9.91778 14.1156 9.70064 14.1436 9.57065C14.1717 9.44066 14.1717 9.2176 14.1436 9.08909C14.1333 9.03444 14.0978 8.93399 14.0653 8.86751C13.9161 8.55288 13.6798 8.35789 13.309 8.24415C13.0771 8.17472 13.0358 8.15847 12.8939 8.08757C12.5926 7.9369 12.4405 7.75816 12.405 7.51443C12.3902 7.4125 12.3917 7.38739 12.4212 7.27513C12.4995 6.96492 12.7964 6.4745 13.1672 6.04169C13.2751 5.91613 13.6207 5.55866 13.6281 5.56604C13.6296 5.56752 13.6148 5.63842 13.5956 5.7241C13.5217 6.05203 13.5084 6.18054 13.5084 6.60301C13.5084 7.03139 13.5188 7.13775 13.5912 7.48932C13.668 7.86452 13.7876 8.23086 13.9161 8.49084C14.2441 9.14375 14.8822 9.70507 15.7818 10.1334C16.9946 10.711 18.779 11.1025 20.8795 11.2561C21.525 11.3034 21.7318 11.3108 22.6388 11.3181C23.5355 11.3255 24.0879 11.3152 24.6906 11.2768C27.7306 11.0877 30.196 10.4762 31.5447 9.57508C32.0705 9.22351 32.4856 8.7907 32.8091 8.25744C33.3586 7.35194 33.5344 6.31497 33.3158 5.27652C32.9805 3.69004 31.7293 2.25571 29.8459 1.29998C28.4146 0.57469 26.7143 0.153697 24.6758 0.0222288C24.3597 0.00154832 23.1233 -0.00731417 22.7659 0.00745729ZM24.4986 2.23798C26.1693 2.33991 27.5489 2.66193 28.7085 3.21882C29.6539 3.67379 30.4013 4.28829 30.809 4.94563C30.9671 5.20266 31.0912 5.49809 31.1473 5.75512C31.1798 5.90579 31.1916 6.23668 31.1695 6.38883C31.1089 6.79948 30.8844 7.22786 30.5771 7.51738C30.2566 7.81872 29.5948 8.13632 28.775 8.383C27.7587 8.6873 26.5459 8.89854 25.119 9.01819C23.9018 9.12011 22.4749 9.13341 21.2562 9.05512C18.7672 8.89263 16.7789 8.36971 16.0684 7.69169C15.9354 7.56465 15.8763 7.4583 15.8143 7.2382C15.7006 6.82459 15.6902 6.47155 15.7848 6.13918C15.832 5.96931 15.9724 5.68865 16.095 5.51877C16.6312 4.76985 17.7967 4.06967 19.395 3.53641C20.0479 3.31927 20.6506 3.15974 21.3936 3.00611C21.5959 2.96475 21.7924 2.92043 21.8293 2.90714C22.1159 2.81112 22.37 2.58512 22.4911 2.31923L22.528 2.23798L22.6418 2.23651C22.7038 2.23503 22.8648 2.22912 22.9993 2.22321C23.3006 2.20844 24.1618 2.2173 24.4986 2.23798Z" fill="white"/>
<path d="M42.1367 11.0803C41.9993 11.1128 41.9166 11.1409 41.8338 11.1822C41.5591 11.3196 41.3656 11.5456 41.2636 11.8425C41.1573 12.1557 41.0332 13.0376 40.9874 13.8072L40.9697 14.1129L40.7924 13.949C40.3685 13.559 39.9667 13.2754 39.5368 13.0656C38.974 12.7894 38.5043 12.6756 37.9267 12.6756C37.587 12.6756 37.3831 12.7008 37.0833 12.7776C36.4097 12.9504 35.8454 13.2769 35.3269 13.7968C34.9074 14.2149 34.5691 14.7215 34.2958 15.3405C33.8512 16.3405 33.5986 17.5355 33.5011 19.0925C33.4775 19.4603 33.4775 20.7336 33.5011 21.1236C33.603 22.8652 33.7995 23.9258 34.2545 25.2079C34.9236 27.0972 35.9163 28.6793 36.9961 29.5818C37.6534 30.1299 38.3359 30.4519 39.0464 30.5479C39.3108 30.5834 39.8337 30.573 40.0701 30.5272C41.0554 30.3396 41.8589 29.8005 42.4734 28.9127C43.0495 28.0796 43.4469 26.8432 43.599 25.4C43.6818 24.6038 43.698 23.3482 43.6286 23.0144C43.5473 22.6259 43.2918 22.3216 42.9328 22.1857C42.794 22.134 42.7068 22.1192 42.5355 22.1192C42.0362 22.1192 41.6182 22.4442 41.4764 22.9434C41.4439 23.0557 41.4439 23.0749 41.4468 23.716C41.4527 24.5728 41.4217 25.0455 41.3153 25.6954C41.0908 27.0884 40.593 28.0087 39.9283 28.2642C39.4689 28.4415 39.0582 28.3543 38.5427 27.9717C38.3654 27.8388 38.0006 27.471 37.81 27.2317C37.036 26.2567 36.3255 24.7013 35.999 23.2669C35.7272 22.0719 35.6253 20.1797 35.7568 18.7379C35.8986 17.1618 36.3004 15.9742 36.8912 15.3774C37.1246 15.141 37.3536 15.0037 37.6357 14.9328C38.0168 14.8367 38.3979 14.9283 38.8352 15.2223C39.6831 15.7925 40.6418 17.1411 41.3597 18.7749C41.4276 18.9285 41.5133 19.1013 41.5502 19.1589C41.8811 19.6745 42.5695 19.8222 43.085 19.4883C43.311 19.3406 43.4824 19.1043 43.5473 18.8487C43.6035 18.6301 43.6005 18.5385 43.5267 18.0289C43.2888 16.4084 43.2106 15.6374 43.1973 14.8013C43.184 13.9165 43.2357 13.2562 43.373 12.5634C43.4499 12.1778 43.4307 11.9297 43.3066 11.683C43.1677 11.4053 42.9476 11.2177 42.6463 11.1158C42.5709 11.0906 42.5074 11.0818 42.3582 11.0773C42.2533 11.0759 42.1529 11.0759 42.1367 11.0803Z" fill="white"/>
<path d="M50.6679 12.0834C50.535 12.1129 50.3223 12.2222 50.2056 12.3183C50.0209 12.4719 49.8791 12.7186 49.8304 12.9741C49.8141 13.0568 49.8097 13.2282 49.8097 13.6935V14.305L49.6915 14.2253C49.2838 13.9535 48.7653 13.822 48.3178 13.8767C47.2586 14.0081 46.3044 14.8664 45.6633 16.2638C44.6293 18.5209 44.3708 21.9804 44.9956 25.1933C45.4432 27.4888 46.2217 29.0029 47.3945 29.8567C47.9086 30.2304 48.56 30.4771 49.21 30.5421C49.464 30.5672 50.0121 30.5509 50.2661 30.5125C50.9368 30.4077 51.6532 30.161 52.2382 29.833C52.7419 29.5509 53.2175 29.1757 53.5972 28.7577C53.6932 28.6543 53.7759 28.5671 53.7803 28.5656C53.7862 28.5627 53.8099 28.6395 53.832 28.734C53.962 29.2717 54.1984 29.8744 54.4761 30.3707C55.3033 31.8509 56.7228 33.0149 58.3389 33.5378C58.9977 33.7505 59.5472 33.8391 60.2163 33.8406C60.9018 33.8421 61.3405 33.7653 62.0924 33.5171C64.5164 32.7165 66.4633 31.1566 67.676 29.0413C68.4457 27.7015 68.9612 26.0249 69.072 24.5034C69.0971 24.1755 69.0838 23.2596 69.0513 22.9923C68.9568 22.2256 68.8061 21.6185 68.5446 20.9538C67.7543 18.9463 66.0246 17.2609 64.0747 16.5976C63.3819 16.3627 62.6419 16.2697 62.277 16.3746C62.0362 16.444 61.7925 16.6183 61.6566 16.8162C61.5399 16.9891 61.4646 17.2313 61.4646 17.4337V17.5356L61.2814 17.5607C60.3596 17.6863 59.3758 18.0216 58.5693 18.4869C57.4467 19.1354 56.4525 20.0896 55.6371 21.3009C55.55 21.4309 55.3919 21.6466 55.287 21.781C54.8306 22.3674 54.4583 22.9376 54.0477 23.6836C53.9812 23.8032 53.7582 24.2331 53.5499 24.6393C52.8098 26.0914 52.5853 26.4799 52.2145 26.9585C52.0639 27.1535 51.7847 27.4415 51.6118 27.5804C51.2411 27.8817 50.7639 28.1151 50.2573 28.2451C49.6649 28.3958 49.2188 28.3618 48.8259 28.1343C48.1612 27.7488 47.6205 26.7384 47.2778 25.2435C46.9189 23.6732 46.7977 21.9405 46.9366 20.3555C47.0917 18.5874 47.588 17.026 48.204 16.3657C48.3104 16.252 48.4669 16.1234 48.5009 16.1234C48.5438 16.1234 48.7122 16.3155 48.8451 16.5149C49.241 17.1102 49.6827 18.187 50.052 19.4618C50.1967 19.9641 50.2307 20.0985 50.3178 20.5402C50.4035 20.97 50.4995 21.3659 50.5778 21.6111C50.6975 21.9863 50.8836 22.2153 51.1908 22.3645C51.6901 22.6082 52.2943 22.4413 52.5942 21.9745C52.7227 21.7736 52.7906 21.5107 52.7714 21.2861C52.7581 21.1207 52.671 20.713 52.5041 20.0232C52.4199 19.676 52.377 19.4353 52.315 18.9301C52.1481 17.5829 52.0506 15.859 52.0328 13.952C52.0284 13.4852 52.0181 13.0687 52.0092 13.0066C51.9486 12.5841 51.6635 12.2488 51.2425 12.1055C51.117 12.0627 50.8097 12.0509 50.6679 12.0834ZM62.7275 19.713C63.1677 19.7425 63.5592 19.806 63.9314 19.9124C64.1604 19.9774 64.3214 19.9966 64.475 19.9788C64.6774 19.9537 64.8266 19.9006 64.9891 19.7927L65.0718 19.7381L65.2402 19.9065C65.8547 20.5151 66.3289 21.2861 66.5962 22.1015C66.7735 22.6466 66.8518 23.1252 66.8666 23.7412C66.8828 24.4059 66.8104 24.9805 66.6184 25.7398C66.2875 27.0501 65.7306 28.1535 64.9241 29.1004C64.7424 29.3131 64.3244 29.7252 64.1013 29.9099C63.246 30.6219 62.2696 31.1462 61.1913 31.4712C60.6521 31.6337 60.1735 31.6662 59.6373 31.5746C58.6934 31.4121 57.8278 30.9468 57.1217 30.2215C56.8986 29.9926 56.776 29.8404 56.6121 29.5952C56.098 28.8241 55.8587 28.0191 55.8617 27.0619C55.8631 26.1963 56.0478 25.4355 56.5308 24.307C56.748 23.7973 57.1719 22.9952 57.3108 22.8298C57.4304 22.688 57.8159 22.301 58.0523 22.0868C59.2606 20.9922 60.3877 20.2654 61.4129 19.9198C61.7083 19.8208 62.085 19.7351 62.3331 19.7144C62.404 19.7071 62.469 19.7011 62.4764 19.6997C62.4853 19.6997 62.5975 19.7056 62.7275 19.713Z" fill="white"/>
<path d="M14.6387 12.8442C13.5161 12.89 12.68 13.0687 11.8366 13.4425C10.9916 13.8177 10.2264 14.4263 9.66659 15.1707C9.15992 15.8443 8.78029 16.6834 8.56758 17.6007C8.53656 17.7351 8.50702 17.874 8.50111 17.9109C8.4952 17.9478 8.48781 17.9818 8.48486 17.9877C8.48043 17.9936 8.40361 17.9227 8.31203 17.8311C7.96342 17.4796 7.34744 17.0571 6.73589 16.7513C5.6354 16.2003 4.37685 15.8768 2.96172 15.7838C2.8406 15.7764 2.5038 15.769 2.21575 15.769C1.53626 15.769 1.12708 15.7956 0.856758 15.8591C0.353043 15.9758 0 16.4204 0 16.936C0 17.1132 0.0324977 17.2536 0.110788 17.416C0.277708 17.7602 0.587913 17.9803 0.976409 18.0305C1.08572 18.0453 1.15219 18.0424 1.37672 18.0202C1.75192 17.9818 2.67958 17.9803 3.05774 18.0187C4.24095 18.1369 5.1627 18.4072 5.9973 18.8784C6.30456 19.0513 6.6901 19.3319 6.76543 19.4353C6.87622 19.5875 7.02541 19.9139 7.39618 20.8121C8.25737 22.9008 8.94869 24.3469 9.94135 26.1387C10.6268 27.3766 11.6534 29.0857 12.1881 29.8834C12.457 30.2866 12.6254 30.4358 12.9178 30.5348C13.0774 30.588 13.3255 30.5998 13.4954 30.5643C13.7362 30.5111 13.9829 30.356 14.1306 30.164C14.2768 29.9735 14.3433 29.7932 14.3536 29.5495C14.3699 29.2083 14.3226 29.0812 13.9932 28.5672C13.132 27.2259 12.7376 26.5464 12.2236 25.5198C11.3875 23.8476 10.8528 22.3291 10.6519 21.0647C10.5233 20.2537 10.5263 19.2359 10.6592 18.4648C11.002 16.4825 12.1364 15.3628 14.0494 15.1205C14.7156 15.0349 15.6669 15.0422 16.2119 15.1338C16.7895 15.2328 17.2194 15.4174 17.4572 15.6715C17.6256 15.8517 17.7098 16.0644 17.7423 16.3835C17.7999 16.9463 17.5502 17.9537 17.1617 18.7292C16.6979 19.6554 15.9682 20.5491 15.0125 21.3586C14.5634 21.7397 14.2 22.0012 13.8263 22.2168C13.1542 22.6024 12.9045 22.9141 12.8839 23.3927C12.875 23.6083 12.9031 23.7457 12.9917 23.9304C13.1069 24.1667 13.2724 24.3292 13.5087 24.4415C13.6845 24.5227 13.8219 24.5493 14.039 24.5404C14.3256 24.5286 14.4364 24.4813 14.9489 24.1608C15.2355 23.9821 15.367 23.9215 15.6284 23.8535C15.8101 23.8048 16.113 23.7989 16.2636 23.8403C16.6477 23.9451 16.9963 24.276 17.308 24.8314C17.791 25.6956 18.1441 26.6454 18.4055 27.7843C18.6079 28.6662 18.729 29.4624 18.9225 31.1759C19.1264 32.981 19.1943 33.4537 19.4632 34.8954C19.7882 36.6458 20.5888 40.3594 20.7084 40.6667C20.8813 41.1143 21.3347 41.4082 21.803 41.3772C21.9729 41.3654 22.0792 41.3358 22.2432 41.2561C22.4884 41.1364 22.6908 40.9001 22.7883 40.6224C22.8267 40.5116 22.8296 40.4894 22.8296 40.2678L22.8282 40.0315L22.6908 39.4406C22.224 37.4273 21.7026 34.885 21.4559 33.4108C21.348 32.7624 21.2845 32.2852 21.1531 31.1168C20.9728 29.5185 20.8813 28.8449 20.7394 28.0886C20.4573 26.5922 20.0939 25.44 19.5518 24.3292C19.1205 23.4458 18.7837 22.9584 18.28 22.4916C18.1175 22.3409 17.8974 22.174 17.7142 22.0662C17.5576 21.9716 17.5591 21.9997 17.7083 21.8357C18.0613 21.4443 18.5089 20.8401 18.7985 20.363C19.4011 19.3733 19.8059 18.2314 19.9447 17.128C19.9743 16.8931 19.9698 16.2048 19.9388 15.995C19.8221 15.2269 19.537 14.6212 19.057 14.1234C18.3538 13.3967 17.339 12.9831 15.9682 12.8678C15.6403 12.8398 15.011 12.828 14.6387 12.8442Z" fill="white"/>
<path d="M24.2011 13.3317C24.0888 13.3523 23.9219 13.4129 23.8274 13.469C23.783 13.4941 23.6856 13.5754 23.6117 13.6493C23.4965 13.763 23.4669 13.8029 23.4093 13.9225C23.2882 14.1677 23.2926 14.1352 23.2808 15.0747C23.269 15.9418 23.2498 16.3244 23.1833 17.0246C23.0784 18.1295 22.8761 19.3526 22.653 20.2463C22.5437 20.6791 22.557 20.9346 22.7062 21.2197C22.8569 21.5093 23.1331 21.7235 23.4418 21.7885C23.5762 21.8165 23.789 21.8165 23.9234 21.7885C24.1317 21.7441 24.3828 21.592 24.5216 21.4251C24.6723 21.2449 24.7343 21.0971 24.8318 20.688C24.8658 20.5462 24.9027 20.397 24.9116 20.3571L24.9293 20.2847L25.1701 21.0883C25.8171 23.2479 26.4405 25.217 26.7005 25.9245C27.0683 26.9246 27.5099 27.8138 27.9383 28.4136C28.5233 29.2319 29.1466 29.7002 29.8173 29.8257C30.0182 29.8627 30.3889 29.8479 30.5751 29.7962C30.7789 29.74 30.9133 29.678 31.0832 29.5657C31.4333 29.3353 31.7021 28.9778 31.8765 28.514C31.9355 28.3589 32.0965 27.737 32.327 26.7739C32.8218 24.7073 33.0789 23.2656 33.1808 21.9953C33.2089 21.6319 33.2044 20.818 33.1719 20.555C33.1055 20.0114 32.9666 19.5579 32.7879 19.3083C32.6786 19.1547 32.5131 19.0114 32.3595 18.9375C32.1852 18.8518 32.0581 18.8238 31.8632 18.8238C31.2206 18.8252 30.7331 19.3556 30.776 20.007C30.7819 20.1178 30.7981 20.1872 30.8528 20.3467C30.9385 20.6008 30.9577 20.6998 30.9769 21.0085C31.0271 21.8209 30.8188 23.3572 30.4081 25.2081C30.2279 26.0161 29.9133 27.3057 29.8956 27.3057C29.8778 27.3057 29.7257 27.0944 29.6105 26.9083C29.2648 26.3514 28.9502 25.6498 28.6503 24.762C28.0077 22.8638 26.7137 18.5549 25.6 14.6094C25.436 14.0259 25.3799 13.8841 25.2454 13.7202C25.1081 13.5532 24.888 13.4114 24.6767 13.3538C24.5704 13.3258 24.3074 13.3125 24.2011 13.3317Z" fill="white"/>
</g>
</svg>
