<svg width="57" height="57" viewBox="0 0 57 57" fill="none" xmlns="http://www.w3.org/2000/svg">
<path d="M40.4065 23.6008C40.4057 22.9543 40.3436 22.3123 40.1729 21.6815C39.8647 20.5362 39.1397 19.6585 38.0511 19.0173C37.4927 18.6884 36.8796 18.4856 36.2251 18.3797C35.7213 18.2984 35.2135 18.2612 34.7023 18.2477C34.6625 18.2463 34.6211 18.241 34.5813 18.2373H22.8796C22.7321 18.2448 22.5846 18.2522 22.4372 18.2597C21.7097 18.297 20.9873 18.3685 20.3038 18.6116C19.0014 19.0754 18.0635 19.8837 17.5134 21.0454C17.327 21.4391 17.2292 21.8567 17.1604 22.2795C17.1049 22.6225 17.0734 22.967 17.0627 23.3137C17.0618 23.3406 17.0552 23.3674 17.0527 23.3942V34.1011C17.061 34.2248 17.0685 34.3486 17.0776 34.4724C17.1265 35.186 17.2275 35.8951 17.5614 36.5505C18.1944 37.7943 19.2524 38.6115 20.7089 39.0045C21.119 39.1156 21.5416 39.1685 21.9674 39.2043C22.5068 39.2505 23.0478 39.258 23.5888 39.258C27.1671 39.258 30.7454 39.258 34.3237 39.2565C34.8349 39.2565 35.3436 39.2274 35.8514 39.17C36.6526 39.0776 37.4057 38.8628 38.0859 38.4602C38.9044 37.9755 39.5184 37.3327 39.9152 36.5259C40.0967 36.1568 40.2002 35.7646 40.2748 35.3664C40.3858 34.7751 40.4098 34.1771 40.409 33.5791C40.4073 30.2528 40.4098 26.9271 40.4065 23.6008ZM34.1555 27.0957C34.1555 28.7637 34.1563 30.4317 34.1547 32.099C34.1547 32.4644 34.0991 32.823 33.9185 33.1556C33.6377 33.6731 33.1779 33.9982 32.5681 34.154C32.2284 34.2413 31.8812 34.2912 31.5275 34.3054C30.6012 34.3449 29.8009 33.7797 29.6352 32.9602C29.4976 32.2839 29.8572 31.5383 30.6468 31.19C30.9616 31.0499 31.298 30.9716 31.6377 30.9059C32.0055 30.8344 32.375 30.7717 32.7412 30.6957C33.008 30.6405 33.1861 30.4936 33.2383 30.2438C33.2508 30.1886 33.2557 30.1312 33.2557 30.0745C33.2566 28.4848 33.2566 26.8958 33.2549 25.3068C33.2549 25.2524 33.245 25.1972 33.23 25.145C33.1919 25.0131 33.0851 24.9325 32.9343 24.94C32.7785 24.9482 32.6252 24.9705 32.472 24.9981C31.7321 25.1294 30.9931 25.2643 30.2541 25.3986C29.4993 25.535 28.7445 25.673 27.9889 25.8102C27.5432 25.8914 27.0975 25.972 26.6517 26.0532C26.636 26.0562 26.6203 26.0607 26.6054 26.0644C26.3361 26.1315 26.2383 26.2426 26.2259 26.4932C26.2242 26.5312 26.2251 26.5692 26.2251 26.608C26.2242 28.8867 26.2251 31.1662 26.2234 33.4441C26.2234 33.8125 26.1778 34.1764 26.0138 34.5186C25.7429 35.0809 25.264 35.4306 24.6178 35.5998C24.2764 35.6886 23.926 35.7393 23.5714 35.7505C22.6385 35.7818 21.8638 35.224 21.7039 34.3978C21.5656 33.6857 21.9276 32.9214 22.8257 32.5792C23.1729 32.448 23.5374 32.3756 23.9036 32.307C24.1828 32.2541 24.4628 32.2064 24.7412 32.1527C25.1132 32.0796 25.3079 31.8693 25.3237 31.5271C25.3253 31.4823 25.3245 31.4398 25.3245 31.3951C25.3245 28.8025 25.3245 26.2091 25.3261 23.6164C25.3261 23.5083 25.3386 23.3972 25.3667 23.2921C25.4347 23.0423 25.6327 22.8999 25.8978 22.838C26.1464 22.7798 26.3991 22.7396 26.6509 22.6933C27.3643 22.5636 28.0776 22.4346 28.7909 22.3056C29.5283 22.1714 30.2648 22.0379 31.0022 21.9037C31.6534 21.7851 32.3046 21.6651 32.9575 21.5495C33.1712 21.5115 33.3883 21.4727 33.6037 21.457C33.9053 21.4354 34.1124 21.6062 34.1431 21.8791C34.1505 21.9439 34.1547 22.0096 34.1547 22.0752C34.1563 23.7492 34.1563 25.4224 34.1555 27.0957Z" fill="white"/>
<path d="M28.6558 54.5294C42.8451 54.5294 54.3478 43.0268 54.3478 28.8375C54.3478 14.6482 42.8451 3.14551 28.6558 3.14551C14.4666 3.14551 2.96387 14.6482 2.96387 28.8375C2.96387 43.0268 14.4666 54.5294 28.6558 54.5294Z" stroke="white" stroke-width="4.67127"/>
</svg>
