<svg width="57" height="57" viewBox="0 0 57 57" fill="none" xmlns="http://www.w3.org/2000/svg">
<g clip-path="url(#clip0_0_1)">
<path d="M33.4498 37.0005H13L22.5494 19.0003H42.9992L33.4498 37.0005Z" fill="white"/>
</g>
<path d="M28.0276 4.67127C40.9063 4.67127 51.3839 15.1489 51.3839 28.0276C51.3839 40.9063 40.9063 51.3839 28.0276 51.3839C15.1489 51.3839 4.67127 40.9063 4.67127 28.0276C4.67127 15.1489 15.1489 4.67127 28.0276 4.67127ZM28.0276 0C12.5494 0 0 12.5494 0 28.0276C0 43.5058 12.5494 56.0552 28.0276 56.0552C43.5058 56.0552 56.0552 43.5058 56.0552 28.0276C56.0552 12.5494 43.5058 0 28.0276 0Z" fill="white"/>
<defs>
<clipPath id="clip0_0_1">
<rect width="30" height="18" fill="white" transform="translate(13 19)"/>
</clipPath>
</defs>
</svg>
