<svg width="57" height="57" viewBox="0 0 57 57" fill="none" xmlns="http://www.w3.org/2000/svg">
<path d="M34.4697 28.8599C34.0784 28.4517 33.444 28.4517 33.0527 28.8599C33.0491 28.8637 31.3193 30.6682 29.9259 32.1221C29.926 29.2757 29.926 25.0636 29.926 25.0578C29.926 24.4805 29.4773 24.0125 28.924 24.0125C28.3707 24.0125 27.9221 24.4805 27.9221 25.0578C27.9221 25.0621 27.9222 29.2773 27.9222 32.122C26.5286 30.6681 24.799 28.8636 24.7954 28.8598C24.404 28.4517 23.7697 28.4517 23.3784 28.8598C22.9871 29.2681 22.9871 29.9299 23.3784 30.3381C23.3828 30.3426 27.9207 35.0766 28.2141 35.3827C28.2136 35.3821 28.2147 35.3832 28.2141 35.3827C28.2146 35.3833 28.2167 35.3854 28.2173 35.386C28.2184 35.3871 28.2191 35.3878 28.22 35.3888C28.2211 35.39 28.2221 35.391 28.2232 35.3921C28.2266 35.3957 28.229 35.3982 28.2291 35.3983C28.238 35.4073 28.2476 35.415 28.2569 35.4235C28.2626 35.429 28.2683 35.4346 28.2742 35.4398C28.2802 35.4451 28.2859 35.4511 28.2919 35.4563C28.2941 35.4582 28.2964 35.4598 28.2986 35.4615C28.3114 35.4723 28.3247 35.4819 28.338 35.4918C28.3485 35.4998 28.3586 35.5085 28.3696 35.5161C28.3724 35.518 28.3754 35.5198 28.3782 35.5217C28.3921 35.531 28.4064 35.5394 28.4205 35.548C28.4313 35.5545 28.4417 35.5618 28.4528 35.568C28.4561 35.5697 28.4596 35.5715 28.4629 35.5732C28.4768 35.5807 28.4911 35.5872 28.5052 35.594C28.5171 35.5998 28.5286 35.6061 28.5408 35.6112C28.5441 35.6127 28.5476 35.6138 28.551 35.6152C28.5648 35.6211 28.579 35.6258 28.593 35.631C28.6062 35.6357 28.619 35.6412 28.6324 35.6454C28.6354 35.6464 28.6387 35.647 28.6418 35.648C28.6562 35.6524 28.6707 35.6557 28.6852 35.6595C28.7017 35.6637 28.7181 35.6681 28.735 35.6714C28.7507 35.6746 28.7666 35.6766 28.7825 35.679C28.7952 35.6808 28.808 35.6836 28.8208 35.685C28.8241 35.6854 28.8275 35.6854 28.8308 35.6857C28.8461 35.6872 28.8614 35.6875 28.8766 35.6883C28.8909 35.689 28.9051 35.6903 28.9194 35.6904C28.9209 35.6904 28.9224 35.6906 28.924 35.6906C28.9255 35.6906 28.9271 35.6904 28.9286 35.6904C28.9429 35.6903 28.9571 35.689 28.9713 35.6883C28.9866 35.6875 29.0018 35.6872 29.0169 35.6858C29.0203 35.6855 29.0237 35.6854 29.027 35.685C29.0399 35.6836 29.0527 35.6809 29.0654 35.679C29.0812 35.6766 29.0969 35.6747 29.1126 35.6716C29.1296 35.6681 29.1461 35.6637 29.1629 35.6594C29.1773 35.6557 29.1918 35.6524 29.206 35.648C29.209 35.6471 29.212 35.6466 29.2149 35.6456C29.2285 35.6414 29.2415 35.6358 29.2549 35.631C29.2689 35.6258 29.283 35.6211 29.2969 35.6152C29.3 35.614 29.3032 35.613 29.3063 35.6116C29.3187 35.6063 29.3304 35.5998 29.3424 35.594C29.3566 35.5873 29.3709 35.5807 29.3849 35.5731C29.388 35.5715 29.3912 35.5702 29.3941 35.5685C29.4054 35.5622 29.4161 35.5547 29.4272 35.548C29.4413 35.5394 29.4557 35.5311 29.4696 35.5216C29.4785 35.5155 29.4872 35.5088 29.496 35.5025C29.5009 35.4989 29.5054 35.4952 29.5101 35.4916C29.5229 35.482 29.5358 35.4729 29.5481 35.4626C29.5504 35.4607 29.5528 35.4589 29.5549 35.4569C29.5625 35.4505 29.5694 35.4433 29.5767 35.4368C29.5825 35.4317 29.588 35.4265 29.5935 35.4212C29.6019 35.4134 29.6106 35.4064 29.6188 35.3982C29.6188 35.3981 29.6203 35.3968 29.6227 35.3941C29.6237 35.3932 29.6245 35.3924 29.6254 35.3913C29.6269 35.3899 29.6286 35.3881 29.6306 35.386C29.6301 35.3865 29.6311 35.3854 29.6306 35.386C29.6312 35.3854 29.6332 35.3831 29.6338 35.3827C29.9272 35.0766 34.4652 30.3426 34.4695 30.3381C34.8609 29.9299 34.861 29.2681 34.4697 28.8599Z" fill="white"/>
<path d="M43.2437 27.2399C43.0096 26.7985 42.7422 26.1836 41.7019 26.1836C41.5696 26.1836 41.4396 26.1828 41.2937 26.1817C40.5607 24.2211 39.343 22.4866 37.7705 21.1162C37.7797 21.1057 37.7922 21.095 37.8012 21.0846C38.2028 20.6161 37.6734 19.8871 37.283 19.6104C34.9724 17.9729 32.1195 17.0054 29.0315 17.0054C26.0651 17.0054 22.2992 18.2412 21.055 19.4201C19.9207 20.4949 20.305 20.9615 20.3818 21.0357C18.7643 22.4183 17.5058 24.1821 16.7582 26.1815C16.5959 26.1827 16.4367 26.1837 16.2901 26.1837C15.2497 26.1837 14.9238 26.7985 14.6899 27.24C14.4558 27.6814 13.7432 30.5584 13.7432 31.9958V32.2011C13.7432 33.6386 14.4558 36.519 14.6899 36.9604C14.9238 37.4019 15.2361 38.0201 16.2764 38.0201C17.013 38.0201 18.0717 38.0452 18.2751 37.9926C18.4785 37.9402 18.6619 37.6301 19.0349 37.8763C19.408 38.1223 20.2021 37.7302 20.2021 37.3559C20.2021 36.9814 20.2021 32.2011 20.2021 32.2011V31.9958C20.2021 31.9958 20.2021 27.2223 20.2021 26.8479C20.2021 26.4734 19.4114 26.0814 19.0384 26.3275C18.736 26.527 18.5549 26.3611 18.382 26.2631C19.0639 24.6539 20.1363 23.2342 21.4733 22.1083L21.4837 22.1142C21.4837 22.1142 22.0674 22.7186 22.8203 22.2149C23.5732 21.7112 26.7092 20.2643 29.0312 20.2643C31.406 20.2643 34.6802 21.7409 35.3598 22.2993C35.959 22.7916 36.5332 22.2982 36.6607 22.1744C37.9552 23.2846 38.9871 24.6732 39.6559 26.2424C39.4739 26.3341 39.2201 26.542 38.895 26.3275C38.5219 26.0813 37.6474 26.4734 37.6474 26.8478C37.6474 27.2223 37.6474 31.9958 37.6474 31.9958V32.2011C37.6474 32.2011 37.6474 36.9814 37.6474 37.3558C37.6474 37.7302 38.5213 38.1223 38.8943 37.8762C39.2674 37.6301 39.5062 37.9402 39.7097 37.9926C39.913 38.045 40.9755 38.02 41.7121 38.02C42.7525 38.02 43.0036 37.4018 43.2376 36.9604C43.4715 36.5189 44.1064 33.6386 44.1064 32.2011V31.9958C44.1064 30.5584 43.4776 27.6814 43.2437 27.2399Z" fill="white"/>
<path d="M28.6558 54.2975C42.8451 54.2975 54.3478 42.7948 54.3478 28.6055C54.3478 14.4163 42.8451 2.91357 28.6558 2.91357C14.4666 2.91357 2.96387 14.4163 2.96387 28.6055C2.96387 42.7948 14.4666 54.2975 28.6558 54.2975Z" stroke="white" stroke-width="4.67127"/>
</svg>
