<svg width="57" height="57" viewBox="0 0 57 57" fill="none" xmlns="http://www.w3.org/2000/svg">
<path d="M37.897 19.6557V36.2762C37.897 36.8476 37.434 37.3064 36.8668 37.3064H32.1038V30.0743H34.5312L34.894 27.2548H32.0996V25.453C32.0996 24.6356 32.3248 24.0809 33.4968 24.0809H34.99V21.5575C34.7314 21.5242 33.8472 21.4449 32.8128 21.4449C30.6607 21.4449 29.1842 22.7587 29.1842 25.1736V27.2548H26.7485V30.0743H29.1842V37.3106H20.2421C19.6749 37.3106 19.2119 36.8476 19.2119 36.2804V19.6557C19.2119 19.0884 19.6749 18.6255 20.2421 18.6255H36.8626C37.434 18.6255 37.897 19.0884 37.897 19.6557Z" fill="white"/>
<path d="M28.6558 53.7617C42.8451 53.7617 54.3478 42.2591 54.3478 28.0698C54.3478 13.8805 42.8451 2.37781 28.6558 2.37781C14.4666 2.37781 2.96387 13.8805 2.96387 28.0698C2.96387 42.2591 14.4666 53.7617 28.6558 53.7617Z" stroke="white" stroke-width="4.67127"/>
</svg>
