<svg width="57" height="57" viewBox="0 0 57 57" fill="none" xmlns="http://www.w3.org/2000/svg">
<path d="M28.7328 18.9326C31.8511 18.9326 32.2204 18.9445 33.4518 19.0006C34.5904 19.0526 35.2087 19.2429 35.6203 19.4027C36.1654 19.6146 36.5544 19.8677 36.9631 20.2763C37.3717 20.685 37.6248 21.074 37.8366 21.6191C37.9965 22.0306 38.1868 22.649 38.2388 23.7876C38.2949 25.019 38.3068 25.3883 38.3068 28.5066C38.3068 31.6248 38.2949 31.9941 38.2388 33.2255C38.1868 34.3641 37.9965 34.9825 37.8366 35.394C37.6248 35.9391 37.3717 36.3282 36.9631 36.7368C36.5544 37.1454 36.1654 37.3985 35.6203 37.6103C35.2087 37.7703 34.5904 37.9605 33.4518 38.0125C32.2206 38.0687 31.8512 38.0805 28.7328 38.0805C25.6144 38.0805 25.2451 38.0687 24.0139 38.0125C22.8753 37.9605 22.2569 37.7703 21.8454 37.6103C21.3003 37.3985 20.9112 37.1454 20.5026 36.7368C20.094 36.3282 19.8409 35.9391 19.6291 35.394C19.4691 34.9825 19.2789 34.3641 19.2269 33.2256C19.1707 31.9941 19.1589 31.6248 19.1589 28.5066C19.1589 25.3883 19.1707 25.019 19.2269 23.7876C19.2789 22.649 19.4691 22.0306 19.6291 21.6191C19.8409 21.074 20.094 20.685 20.5026 20.2763C20.9112 19.8677 21.3003 19.6146 21.8454 19.4027C22.2569 19.2429 22.8753 19.0526 24.0138 19.0006C25.2453 18.9445 25.6146 18.9326 28.7328 18.9326ZM28.7329 16.8284C25.5612 16.8284 25.1636 16.8418 23.918 16.8986C22.6749 16.9554 21.826 17.1528 21.0832 17.4415C20.3152 17.7399 19.664 18.1392 19.0147 18.7885C18.3655 19.4377 17.9662 20.089 17.6678 20.8569C17.379 21.5998 17.1817 22.4486 17.1249 23.6917C17.0681 24.9372 17.0547 25.3349 17.0547 28.5065C17.0547 31.6782 17.0681 32.0759 17.1249 33.3214C17.1817 34.5645 17.379 35.4134 17.6678 36.1562C17.9662 36.9241 18.3655 37.5754 19.0147 38.2247C19.664 38.8739 20.3152 39.2732 21.0832 39.5716C21.826 39.8603 22.6749 40.0577 23.918 40.1145C25.1636 40.1713 25.5612 40.1847 28.7329 40.1847C31.9045 40.1847 32.3021 40.1713 33.5477 40.1145C34.7908 40.0577 35.6396 39.8603 36.3825 39.5716C37.1504 39.2732 37.8017 38.8739 38.4509 38.2247C39.1001 37.5754 39.4995 36.9242 39.7979 36.1562C40.0866 35.4134 40.284 34.5645 40.3407 33.3214C40.3976 32.0759 40.411 31.6782 40.411 28.5065C40.411 25.3349 40.3976 24.9372 40.3407 23.6917C40.284 22.4486 40.0866 21.5998 39.7979 20.8569C39.4995 20.089 39.1001 19.4377 38.4509 18.7885C37.8017 18.1392 37.1504 17.7399 36.3825 17.4415C35.6396 17.1528 34.7908 16.9554 33.5477 16.8986C32.3021 16.8418 31.9045 16.8284 28.7329 16.8284ZM28.7328 22.5096C25.4208 22.5096 22.7359 25.1946 22.7359 28.5066C22.7359 31.8185 25.4208 34.5035 28.7328 34.5035C32.0448 34.5035 34.7297 31.8185 34.7297 28.5066C34.7297 25.1946 32.0448 22.5096 28.7328 22.5096ZM28.7328 32.3993C26.583 32.3993 24.8401 30.6564 24.8401 28.5066C24.8401 26.3567 26.583 24.6138 28.7328 24.6138C30.8827 24.6138 32.6256 26.3567 32.6256 28.5066C32.6256 30.6564 30.8827 32.3993 28.7328 32.3993ZM36.368 22.2727C36.368 23.0467 35.7406 23.6741 34.9667 23.6741C34.1927 23.6741 33.5653 23.0467 33.5653 22.2727C33.5653 21.4987 34.1927 20.8714 34.9667 20.8714C35.7406 20.8714 36.368 21.4987 36.368 22.2727Z" fill="white"/>
<path d="M28.6558 54.1203C42.8451 54.1203 54.3478 42.6176 54.3478 28.4283C54.3478 14.239 42.8451 2.73633 28.6558 2.73633C14.4666 2.73633 2.96387 14.239 2.96387 28.4283C2.96387 42.6176 14.4666 54.1203 28.6558 54.1203Z" stroke="white" stroke-width="4.67127"/>
</svg>
