<svg width="57" height="57" viewBox="0 0 57 57" fill="none" xmlns="http://www.w3.org/2000/svg">
<path d="M28.8352 4.96863C41.7139 4.96863 52.1915 15.4463 52.1915 28.325C52.1915 41.2036 41.7139 51.6813 28.8352 51.6813C15.9565 51.6813 5.47888 41.2036 5.47888 28.325C5.47888 15.4463 15.9565 4.96863 28.8352 4.96863ZM28.8352 0.297363C13.357 0.297363 0.807617 12.8467 0.807617 28.325C0.807617 43.8032 13.357 56.3526 28.8352 56.3526C44.3135 56.3526 56.8628 43.8032 56.8628 28.325C56.8628 12.8467 44.3135 0.297363 28.8352 0.297363ZM22.508 35.3319H21.2444V25.0551C21.6345 24.7608 22.0549 24.5085 22.508 24.3334V35.3319ZM26.3034 35.3319H27.5716V23.5813C27.2797 23.92 27.0111 24.2796 26.7845 24.6744L26.3034 24.4385V35.3319ZM23.7762 35.3319H25.0398V24.0601C24.3998 23.9597 24.2527 23.9969 23.7762 24.0484V35.3319ZM18.7126 35.3319H19.9808V26.3887C19.5838 26.9726 19.2755 27.6243 19.105 28.3413L18.7126 28.1101V35.3319ZM14.9172 28.6449C14.1488 29.341 13.6536 30.3686 13.6536 31.5318C13.6536 32.6973 14.1488 33.7226 14.9172 34.4233V28.6449ZM38.8037 27.7901C38.5468 24.1745 35.7627 21.3181 32.3293 21.3181C31.0354 21.3181 29.8442 21.7361 28.8352 22.4368V35.3319H40.3359C42.3679 35.3319 44.0168 33.5568 44.0168 31.373C44.0168 28.5282 41.2748 26.5709 38.8037 27.7901ZM17.449 27.7527C17.0683 27.72 16.7833 27.713 16.1854 27.9069V35.1544C16.7483 35.3365 16.9912 35.3319 17.449 35.3319V27.7527Z" fill="white"/>
</svg>
