<svg width="57" height="57" viewBox="0 0 57 57" fill="none" xmlns="http://www.w3.org/2000/svg">
<path d="M28.7329 16.4443C22.2863 16.4443 17.0547 21.676 17.0547 28.1225C17.0547 34.569 22.2863 39.8007 28.7329 39.8007C35.1794 39.8007 40.411 34.569 40.411 28.1225C40.411 21.676 35.1794 16.4443 28.7329 16.4443ZM33.4748 33.6273C33.277 33.6273 33.1545 33.566 32.9709 33.4577C30.0325 31.6872 26.6138 31.6118 23.2375 32.304C23.0539 32.3511 22.8137 32.4265 22.6772 32.4265C22.2204 32.4265 21.9331 32.0639 21.9331 31.6825C21.9331 31.1974 22.2204 30.9667 22.5736 30.8914C26.4302 30.039 30.3716 30.1144 33.7337 32.1251C34.021 32.3087 34.1905 32.4736 34.1905 32.9021C34.1905 33.3306 33.8562 33.6273 33.4748 33.6273ZM34.7415 30.5382C34.4966 30.5382 34.3318 30.4299 34.1623 30.3404C31.2192 28.5981 26.8304 27.8965 22.9267 28.956C22.7007 29.0172 22.5783 29.0784 22.3664 29.0784C21.8625 29.0784 21.4528 28.6687 21.4528 28.1649C21.4528 27.661 21.6977 27.3267 22.1827 27.1901C23.4918 26.8228 24.8291 26.5497 26.7881 26.5497C29.8442 26.5497 32.7967 27.3079 35.1229 28.6923C35.5043 28.9183 35.655 29.2103 35.655 29.6199C35.6503 30.1285 35.2547 30.5382 34.7415 30.5382ZM36.2012 26.95C35.9564 26.95 35.8057 26.8888 35.5938 26.7663C32.241 24.765 26.2465 24.2847 22.3664 25.3678C22.1968 25.4149 21.9849 25.4902 21.7589 25.4902C21.1373 25.4902 20.6617 25.0052 20.6617 24.3789C20.6617 23.7385 21.0573 23.3759 21.4811 23.2535C23.1386 22.7684 24.994 22.5377 27.0141 22.5377C30.4516 22.5377 34.054 23.2535 36.6863 24.7886C37.0535 25.0005 37.2937 25.2924 37.2937 25.8528C37.2937 26.4932 36.7757 26.95 36.2012 26.95Z" fill="white"/>
<path d="M28.6558 53.7365C42.8451 53.7365 54.3478 42.2338 54.3478 28.0445C54.3478 13.8552 42.8451 2.35254 28.6558 2.35254C14.4666 2.35254 2.96387 13.8552 2.96387 28.0445C2.96387 42.2338 14.4666 53.7365 28.6558 53.7365Z" stroke="white" stroke-width="4.67127"/>
</svg>
