<svg width="57" height="57" viewBox="0 0 57 57" fill="none" xmlns="http://www.w3.org/2000/svg">
<path d="M39.0444 24.9042C39.0592 25.1086 39.0592 25.313 39.0592 25.5173C39.0592 31.7505 34.2428 38.9326 25.4396 38.9326C22.7275 38.9326 20.2081 38.1589 18.0889 36.816C18.4742 36.8597 18.8447 36.8743 19.2448 36.8743C21.4826 36.8743 23.5426 36.1299 25.1877 34.8599C23.0832 34.8161 21.3196 33.4585 20.712 31.59C21.0084 31.6337 21.3048 31.6629 21.6161 31.6629C22.0458 31.6629 22.4756 31.6045 22.8757 31.5024C20.6824 31.0644 19.0373 29.1667 19.0373 26.8749V26.8165C19.6745 27.1669 20.4156 27.3858 21.201 27.415C19.9117 26.5683 19.067 25.1232 19.067 23.4882C19.067 22.6124 19.304 21.8095 19.719 21.1088C22.0754 23.97 25.6174 25.8384 29.5892 26.0428C29.5151 25.6925 29.4706 25.3276 29.4706 24.9626C29.4706 22.3642 31.6047 20.2476 34.2575 20.2476C35.6357 20.2476 36.8806 20.8169 37.755 21.7365C38.8369 21.5322 39.8743 21.138 40.7931 20.5979C40.4374 21.6928 39.6816 22.6124 38.6887 23.1963C39.652 23.0941 40.5857 22.8313 41.4452 22.4664C40.7932 23.4006 39.9781 24.2327 39.0444 24.9042Z" fill="white"/>
<path d="M28.692 54.3839C42.8812 54.3839 54.3839 42.8812 54.3839 28.692C54.3839 14.5027 42.8812 3 28.692 3C14.5027 3 3 14.5027 3 28.692C3 42.8812 14.5027 54.3839 28.692 54.3839Z" stroke="white" stroke-width="4.67127"/>
</svg>
