<svg width="57" height="57" viewBox="0 0 57 57" fill="none" xmlns="http://www.w3.org/2000/svg">
<path d="M28.6549 53.9135C42.8441 53.9135 54.3468 42.4108 54.3468 28.2215C54.3468 14.0322 42.8441 2.52954 28.6549 2.52954C14.4656 2.52954 2.96289 14.0322 2.96289 28.2215C2.96289 42.4108 14.4656 53.9135 28.6549 53.9135Z" stroke="white" stroke-width="4.67127"/>
<path d="M42.1841 34.5386C41.8618 35.6894 40.9121 36.5957 39.7062 36.9033C37.5205 37.4622 28.756 37.4622 28.756 37.4622C28.756 37.4622 19.9916 37.4622 17.8058 36.9033C16.5999 36.5956 15.6502 35.6894 15.3279 34.5386C14.7422 32.4527 14.7422 28.1007 14.7422 28.1007C14.7422 28.1007 14.7422 23.7488 15.3279 21.6629C15.6502 20.5121 16.5999 19.6436 17.8058 19.336C19.9916 18.7771 28.756 18.7771 28.756 18.7771C28.756 18.7771 37.5204 18.7771 39.7062 19.336C40.9121 19.6436 41.8618 20.5121 42.1841 21.6629C42.7698 23.7488 42.7698 28.1007 42.7698 28.1007C42.7698 28.1007 42.7698 32.4527 42.1841 34.5386ZM25.8895 24.1495V32.052L33.2149 28.1006L25.8895 24.1495Z" fill="white"/>
</svg>
